<?xml version="1.0" standalone="no"?>
<!DOCTYPE svg PUBLIC "-//W3C//DTD SVG 20010904//EN"
 "http://www.w3.org/TR/2001/REC-SVG-20010904/DTD/svg10.dtd">
<svg version="1.0" xmlns="http://www.w3.org/2000/svg"
 width="1024.000000pt" height="1024.000000pt" viewBox="0 0 1024.000000 1024.000000"
 preserveAspectRatio="xMidYMid meet">

<g transform="translate(0.000000,1024.000000) scale(0.100000,-0.100000)"
fill="#000000" stroke="none">
<path d="M4005 8920 c-40 -5 -169 -48 -380 -128 -700 -264 -1257 -474 -1815
-683 -894 -336 -863 -324 -905 -370 -43 -48 -65 -96 -105 -233 -43 -149 -58
-226 -71 -377 -25 -290 22 -633 111 -809 16 -32 34 -61 39 -64 5 -4 -4 -32
-19 -64 -36 -70 -95 -282 -117 -417 -25 -146 -24 -514 1 -650 23 -128 57 -233
101 -314 l35 -64 -29 -61 c-31 -65 -90 -287 -112 -421 -18 -108 -18 -472 0
-590 7 -49 24 -127 37 -173 43 -150 95 -227 181 -274 43 -23 416 -144 1523
-492 581 -182 1289 -403 1740 -542 239 -74 563 -175 720 -224 1069 -334 1076
-336 1175 -311 25 6 128 49 228 95 100 46 232 106 292 134 61 28 434 198 830
377 396 180 907 413 1135 517 228 105 514 235 635 290 121 54 230 106 243 114
35 23 56 75 48 119 -11 56 -85 123 -199 179 -52 25 -102 46 -111 46 -13 0 -16
-13 -16 -87 l-1 -88 -122 -54 c-67 -30 -356 -163 -642 -294 -1082 -497 -2223
-1012 -2230 -1005 -9 9 -26 144 -31 263 -9 185 17 443 50 484 12 16 139 77
551 266 160 73 340 156 400 185 61 28 324 149 585 267 261 119 488 225 504
236 51 36 69 95 65 215 l-4 106 573 261 c616 280 632 289 632 358 0 69 -56
115 -231 190 -48 20 -89 37 -93 37 -3 0 -6 -38 -6 -85 0 -48 -4 -85 -10 -85
-5 0 -98 -41 -207 -91 -221 -102 -661 -299 -667 -299 -2 0 -5 58 -8 129 -4 99
-9 136 -22 155 -9 14 -22 26 -28 26 -6 0 -106 -43 -222 -96 -116 -54 -319
-145 -451 -204 -598 -267 -996 -446 -1189 -534 -115 -53 -211 -96 -213 -96 -9
0 0 362 12 465 8 66 15 123 15 126 0 4 102 53 228 109 125 57 363 165 528 241
292 133 931 418 1064 474 112 47 224 106 253 133 38 36 50 90 46 206 l-4 98
130 58 c630 281 1005 453 1032 475 63 50 54 126 -24 195 -41 36 -216 130 -242
130 -7 0 -11 -28 -11 -83 l0 -84 -297 -133 c-164 -74 -361 -162 -438 -198 -77
-35 -146 -66 -152 -69 -10 -4 -13 16 -14 78 0 126 -13 217 -32 236 -19 19 1
26 -287 -105 -85 -38 -243 -108 -350 -155 -107 -47 -346 -151 -530 -232 -494
-217 -912 -397 -915 -393 -2 2 -9 53 -16 113 -20 183 5 556 42 648 9 21 34 38
108 74 148 71 435 201 786 358 176 79 361 162 410 185 268 125 671 306 900
405 309 133 901 401 932 421 12 8 28 32 34 54 10 33 9 43 -5 65 -9 14 -28 30
-41 35 -28 11 -3712 934 -4560 1144 -325 80 -611 148 -635 151 -25 4 -54 7
-65 9 -11 2 -47 0 -80 -4z m-2661 -1559 c46 -14 51 -19 54 -47 l3 -31 37 18
c52 27 107 24 179 -11 103 -48 174 -134 230 -278 24 -60 27 -80 27 -203 1
-131 0 -137 -29 -194 -39 -77 -94 -117 -169 -123 -80 -6 -145 19 -216 85 l-60
55 0 -197 c0 -173 -2 -196 -15 -191 -9 3 -44 13 -78 22 -34 8 -65 19 -70 23
-5 6 -10 694 -7 1064 0 38 1 38 31 32 17 -4 54 -14 83 -24z m714 -217 c71 -20
82 -29 82 -65 0 -34 0 -35 42 -9 36 22 93 26 149 10 58 -16 61 -26 43 -116
-22 -111 -17 -105 -61 -83 -46 23 -91 24 -122 3 -45 -32 -51 -67 -51 -304 l0
-220 -27 6 c-16 4 -53 14 -83 23 l-55 17 -3 377 c-3 427 -12 389 86 361z
m1236 -8 c48 -20 76 -71 76 -140 0 -65 -22 -96 -69 -96 -60 0 -111 67 -111
145 0 64 19 93 68 104 1 1 18 -5 36 -13z m-484 -201 c77 -39 161 -128 204
-217 53 -109 69 -185 63 -298 -7 -137 -41 -208 -123 -256 -38 -22 -56 -26
-116 -26 -144 2 -271 94 -349 256 -115 236 -82 473 76 560 49 27 175 17 245
-19z m548 -168 c11 -9 13 -98 10 -466 l-3 -456 -25 -50 c-28 -56 -78 -95 -122
-95 -16 0 -51 9 -77 21 -47 20 -49 22 -55 72 -7 58 -8 137 -2 137 2 0 17 -7
32 -15 38 -20 51 -19 64 4 6 13 10 174 10 454 0 238 3 436 6 439 7 8 145 -31
162 -45z m1007 -76 l50 -16 5 -105 5 -105 45 -13 c94 -28 90 -22 90 -111 0
-44 -4 -82 -9 -85 -5 -3 -31 1 -57 9 -27 8 -55 15 -61 15 -19 0 -18 -326 1
-371 20 -48 45 -67 91 -71 39 -3 40 -5 52 -50 6 -26 13 -66 15 -90 l3 -43 -62
2 c-103 2 -192 54 -233 133 -35 68 -43 125 -49 335 l-6 209 -35 11 c-58 17
-60 20 -60 107 l0 81 50 -7 50 -7 0 94 c0 52 3 97 6 100 8 7 36 2 109 -22z
m-522 -54 c149 -69 247 -236 272 -464 6 -52 4 -64 -9 -69 -8 -3 -110 22 -226
55 -220 64 -240 68 -240 51 0 -23 33 -87 58 -114 59 -62 182 -96 228 -61 10 8
24 15 31 15 15 0 95 -139 89 -155 -2 -7 -25 -22 -51 -35 -104 -50 -268 -6
-373 100 -61 61 -125 182 -142 266 -18 85 -9 228 19 290 24 55 83 120 128 141
46 21 149 11 216 -20z m1207 -345 c118 -55 226 -202 266 -362 23 -89 15 -226
-16 -297 -26 -61 -81 -115 -135 -133 -57 -19 -160 -9 -228 22 -110 52 -214
189 -251 334 -22 84 -20 224 3 291 32 94 90 155 163 174 51 12 137 0 198 -29z
m-3587 -370 c16 -14 17 -64 17 -776 0 -419 4 -767 9 -774 4 -7 136 -53 292
-102 220 -69 287 -94 301 -112 15 -20 18 -45 18 -166 0 -122 -2 -144 -16 -149
-9 -3 -84 15 -168 41 -83 26 -277 85 -431 132 -197 60 -285 91 -297 106 -17
19 -18 79 -18 944 0 835 2 924 16 932 19 11 250 -52 277 -76z m1035 -297 c74
-23 123 -43 135 -56 16 -20 17 -80 17 -947 0 -817 -2 -927 -15 -942 -15 -16
-24 -15 -143 21 -84 26 -133 46 -144 60 -17 20 -18 80 -18 941 0 615 3 926 10
939 14 25 21 25 158 -16z m732 -232 c135 -41 280 -88 324 -105 161 -62 350
-220 459 -385 107 -161 189 -370 223 -568 23 -127 15 -379 -15 -490 -60 -226
-208 -391 -395 -441 -67 -18 -193 -17 -281 1 -122 25 -579 168 -599 186 -19
18 -20 40 -17 941 1 655 5 926 13 936 6 7 18 10 27 7 9 -4 126 -40 261 -82z
m1950 -595 c189 -58 330 -107 337 -117 8 -11 12 -62 13 -164 0 -128 -2 -148
-16 -154 -9 -3 -166 40 -348 97 -182 56 -341 105 -353 108 l-23 4 0 -216 c0
-213 0 -216 23 -229 12 -8 149 -53 303 -102 249 -78 283 -91 295 -114 11 -20
13 -58 9 -156 -5 -130 -5 -130 -30 -133 -14 -1 -151 38 -305 87 -154 49 -283
87 -287 84 -5 -2 -8 -98 -8 -212 0 -155 3 -211 13 -218 6 -6 46 -20 87 -33
236 -70 616 -192 627 -202 19 -16 19 -311 -1 -327 -11 -9 -108 17 -447 123
-239 74 -458 141 -488 150 -101 30 -91 -78 -91 981 0 633 3 934 10 941 8 8 63
-6 183 -43 95 -30 318 -99 497 -155z"/>
<path d="M1448 7124 c-42 -22 -48 -43 -48 -166 0 -109 1 -116 29 -160 76 -120
205 -144 263 -49 19 29 23 51 23 111 0 42 -6 90 -14 110 -54 132 -167 201
-253 154z"/>
<path d="M2680 6769 c-57 -12 -100 -81 -100 -160 0 -49 39 -153 71 -193 35
-42 98 -75 141 -76 78 0 123 60 122 165 -1 159 -116 289 -234 264z"/>
<path d="M3704 6491 c-30 -13 -65 -61 -62 -85 3 -17 26 -28 142 -63 76 -23
143 -40 147 -37 10 6 -17 78 -43 116 -37 54 -134 90 -184 69z"/>
<path d="M4899 6107 c-53 -35 -71 -79 -66 -162 6 -107 57 -194 139 -236 52
-27 100 -25 136 6 43 36 55 74 50 158 -8 115 -64 205 -150 241 -50 21 -69 20
-109 -7z"/>
<path d="M3247 5023 c-4 -3 -7 -268 -7 -588 0 -542 1 -583 18 -597 9 -9 67
-31 127 -49 92 -29 125 -34 205 -34 112 0 167 21 238 93 114 114 152 354 93
587 -42 162 -156 350 -263 432 -67 53 -198 114 -301 142 -83 23 -100 25 -110
14z"/>
</g>
</svg>
